<?xml version="1.0" standalone="no"?><!DOCTYPE svg PUBLIC "-//W3C//DTD SVG 1.1//EN" "http://www.w3.org/Graphics/SVG/1.1/DTD/svg11.dtd"><svg t="1689918866415" class="icon" viewBox="0 0 1024 1024" version="1.1" xmlns="http://www.w3.org/2000/svg" p-id="4155" xmlns:xlink="http://www.w3.org/1999/xlink" width="200" height="200"><path d="M1002.26198187 511.83979361c0 94.39545481-202.16508871 295.75950791-490.25949757 295.7595079-280.76587114 0-490.26570771-198.05062454-490.26570771-295.7595079 0-97.6890126 210.40270905-295.44033546 490.26570771-295.44033546C802.36214621 216.39945815 1002.33028737 414.150781 1002.26198187 511.83979361L1002.26198187 511.83979361zM512.43342841 270.35071769c-130.48301219 0-236.25440492 108.19685217-236.25440491 241.65425091s105.77139271 241.65425091 236.25440491 241.65425091c130.51778631 0 236.29911381-108.19685217 236.29911381-241.65425091C748.72757484 378.54756986 642.95121351 270.35071769 512.43342841 270.35071769L512.43342841 270.35071769zM512.43342841 270.35071769" p-id="4156" fill="#ffffff"></path><path d="M512.0024843 357.72562727c-83.09775596 0-150.45672718 68.88776833-150.45672717 153.87199261 0 84.97801535 67.35897122 153.88068583 150.45672717 153.88068584 83.09154702 0 150.42692043-68.90267049 150.42692043-153.88068584C662.42940473 426.61339561 595.09403011 357.72562727 512.0024843 357.72562727L512.0024843 357.72562727zM512.0024843 357.72562727" p-id="4157" fill="#ffffff"></path></svg>